<svg width="17" height="17" viewBox="0 0 17 17" fill="none" xmlns="http://www.w3.org/2000/svg">
<g clip-path="url(#clip0_1_4)">
<path d="M16.2506 4.84288L14.705 3.29659L15.3758 2.6258C15.4435 2.56045 15.4974 2.48229 15.5345 2.39587C15.5717 2.30946 15.5912 2.21651 15.592 2.12246C15.5928 2.0284 15.5749 1.93513 15.5393 1.84808C15.5037 1.76103 15.4511 1.68194 15.3846 1.61543C15.3181 1.54893 15.239 1.49633 15.1519 1.46071C15.0649 1.4251 14.9716 1.40718 14.8776 1.40799C14.7835 1.40881 14.6906 1.42835 14.6041 1.46547C14.5177 1.5026 14.4396 1.55656 14.3742 1.62421L13.7034 2.295L12.1571 0.749421C11.6698 0.284983 11.0223 0.0259094 10.3491 0.0259094C9.67589 0.0259094 9.02847 0.284983 8.5411 0.749421C8.30349 0.98683 8.115 1.26874 7.9864 1.57903C7.8578 1.88932 7.79161 2.22191 7.79161 2.5578C7.79161 2.89368 7.8578 3.22627 7.9864 3.53657C8.115 3.84686 8.30349 4.12876 8.5411 4.36617L10.0867 5.91175L5.91176 10.0867L4.36547 8.54109C3.87809 8.07665 3.23068 7.81758 2.55745 7.81758C1.88422 7.81758 1.23681 8.07665 0.749429 8.54109C0.511824 8.7785 0.323335 9.0604 0.194733 9.37069C0.0661314 9.68098 -6.10352e-05 10.0136 -6.10352e-05 10.3495C-6.10352e-05 10.6853 0.0661314 11.0179 0.194733 11.3282C0.323335 11.6385 0.511824 11.9204 0.749429 12.1578L2.29501 13.7034L1.62422 14.3742C1.55657 14.4396 1.50261 14.5177 1.46548 14.6041C1.42836 14.6906 1.40882 14.7835 1.408 14.8776C1.40718 14.9716 1.42511 15.0649 1.46072 15.1519C1.49634 15.239 1.54893 15.3181 1.61544 15.3846C1.68195 15.4511 1.76104 15.5037 1.84809 15.5393C1.93514 15.5749 2.02841 15.5928 2.12246 15.592C2.21652 15.5912 2.30946 15.5717 2.39588 15.5345C2.4823 15.4974 2.56046 15.4434 2.6258 15.3758L3.2966 14.705L4.84289 16.2506C5.08028 16.4881 5.36214 16.6765 5.67237 16.805C5.9826 16.9336 6.31511 16.9997 6.65091 16.9997C6.98671 16.9997 7.31922 16.9336 7.62945 16.805C7.93967 16.6765 8.22153 16.4881 8.45893 16.2506C8.69651 16.0132 8.88499 15.7314 9.01358 15.4212C9.14217 15.1109 9.20836 14.7784 9.20836 14.4426C9.20836 14.1067 9.14217 13.7742 9.01358 13.464C8.88499 13.1537 8.69651 12.8719 8.45893 12.6345L6.91335 11.089L11.0925 6.91334L12.6381 8.45892C12.8755 8.69642 13.1574 8.88482 13.4676 9.01336C13.7778 9.1419 14.1103 9.20806 14.4461 9.20806C14.7819 9.20806 15.1144 9.1419 15.4247 9.01336C15.7349 8.88482 16.0167 8.69642 16.2541 8.45892C16.4917 8.22157 16.6802 7.93973 16.8088 7.62949C16.9374 7.31926 17.0036 6.98673 17.0036 6.6509C17.0036 6.31507 16.9374 5.98254 16.8088 5.67231C16.6802 5.36207 16.4917 5.08023 16.2541 4.84288H16.2506Z" fill="#FA9649"/>
</g>
<defs>
<clipPath id="clip0_1_4">
<rect width="17" height="17" fill="white"/>
</clipPath>
</defs>
</svg>
