<svg width="17" height="17" viewBox="0 0 17 17" fill="none" xmlns="http://www.w3.org/2000/svg">
<g clip-path="url(#clip0_1_18)">
<path d="M15.725 1.53211C15.3212 1.1952 14.8474 0.952446 14.3381 0.82147C13.8288 0.690494 13.2967 0.674588 12.7805 0.774905L11.531 1.0809C10.8789 1.2004 10.2894 1.54475 9.86499 2.05403C9.44062 2.56331 9.20825 3.20527 9.20833 3.8682V14.824C8.73861 14.8927 8.26139 14.8927 7.79167 14.824V3.8682C7.79402 3.21139 7.56702 2.57436 7.14984 2.06705C6.73266 1.55974 6.15148 1.21397 5.50658 1.0894L4.17917 0.766405C3.66857 0.672971 3.14368 0.692915 2.64164 0.824825C2.13961 0.956735 1.6727 1.19739 1.27398 1.52974C0.875264 1.8621 0.554474 2.27804 0.334321 2.74811C0.114168 3.21819 3.45755e-05 3.73091 0 4.24999L0 11.895C4.06979e-05 12.7243 0.291108 13.5274 0.82247 14.1641C1.35383 14.8008 2.09179 15.2309 2.90771 15.3793L7.36029 16.1889C8.11393 16.3259 8.88607 16.3259 9.63971 16.1889L14.0958 15.3793C14.9111 15.2301 15.6482 14.7997 16.1789 14.1631C16.7095 13.5264 17.0001 12.7238 17 11.895V4.24999C17.0003 3.73109 16.8862 3.21851 16.6659 2.74874C16.4455 2.27897 16.1242 1.86357 15.725 1.53211Z" fill="#FA9649"/>
</g>
<defs>
<clipPath id="clip0_1_18">
<rect width="17" height="17" fill="white"/>
</clipPath>
</defs>
</svg>
