<svg width="17" height="17" viewBox="0 0 17 17" fill="none" xmlns="http://www.w3.org/2000/svg">
<g clip-path="url(#clip0_1_7)">
<path d="M9.31105 0.042503C11.2772 0.228129 13.1169 1.09374 14.5134 2.49017C15.9098 3.8866 16.7754 5.72639 16.961 7.6925C15.9159 7.8746 14.8424 7.8026 13.8309 7.48257C12.8195 7.16255 11.8999 6.60389 11.1498 5.85376C10.3997 5.10362 9.841 4.18403 9.52097 3.17261C9.20095 2.16118 9.12895 1.08761 9.31105 0.042503ZM5.86217 11.1371C5.11139 10.3863 4.18987 9.82857 3.17648 9.51166C2.16308 9.19475 1.08799 9.1281 0.0432113 9.31742C0.230646 11.28 1.09572 13.1161 2.48981 14.5102C3.8839 15.9043 5.71997 16.7694 7.68259 16.9568C7.87163 15.9118 7.80478 14.8367 7.48776 13.8232C7.17074 12.8097 6.61298 11.8881 5.86217 11.1371ZM15.8362 9.20834C14.6847 9.20885 13.5465 8.96166 12.4989 8.48353C11.4513 8.00541 10.5189 7.30754 9.76477 6.43727C9.01067 5.56701 8.4526 4.54471 8.12841 3.43976C7.80422 2.3348 7.7215 1.17304 7.88588 0.0332947C5.84856 0.173986 3.93101 1.04733 2.48757 2.49195C1.04412 3.93657 0.172332 5.85482 0.0332947 7.89225C1.26802 7.70478 2.52952 7.81017 3.71602 8.19992C4.90253 8.58966 5.9808 9.25285 6.86386 10.136C7.74691 11.0191 8.41001 12.0974 8.79967 13.284C9.18932 14.4705 9.29461 15.732 9.10705 16.9667C11.1442 16.8285 13.0624 15.9578 14.5076 14.5155C15.9528 13.0732 16.8273 11.1566 16.9695 9.11979C16.5943 9.17575 16.2156 9.20533 15.8362 9.20834Z" fill="#FA9649"/>
</g>
<defs>
<clipPath id="clip0_1_7">
<rect width="17" height="17" fill="white"/>
</clipPath>
</defs>
</svg>
